<?xml version="1.0" encoding="iso-8859-1"?>
<!-- Uploaded to: SVG Repo, www.svgrepo.com, Generator: SVG Repo Mixer Tools -->
<svg fill="#000000" height="800px" width="800px" version="1.1" id="Layer_1" xmlns="http://www.w3.org/2000/svg" xmlns:xlink="http://www.w3.org/1999/xlink" 
	 viewBox="0 0 512 512" xml:space="preserve">
<g>
	<g>
		<path d="M418.02,148.26C389.457,42.187,280.187-21.326,173.765,6.57C66.905,34.584,2.76,144.312,30.773,251.172l0.274,1.042
			l56.6,146.103V512h228.262v-88.768h114.131v-92.939l57.759-14.44L418.02,148.26z M186.062,238.944l-26.901,26.901l-59.103-59.103
			l59.103-59.102l26.901,26.901l-32.201,32.203L186.062,238.944z M229.694,292.974h-38.878l36.308-172.464h38.878L229.694,292.974z
			 M297.656,265.843l-26.901-26.898l32.201-32.203l-32.201-32.203l26.901-26.901l59.103,59.102L297.656,265.843z"/>
	</g>
</g>
</svg>